<svg width="843" height="432" viewBox="0 0 843 432" fill="none" xmlns="http://www.w3.org/2000/svg">
<g style="mix-blend-mode:soft-light" opacity="0.3">
<path d="M571.035 76.839L560.687 34.9517L588.828 27.9994L590.591 35.1379L570.592 40.0789L573.259 50.8752L589.896 46.765L591.528 53.3725L574.891 57.4828L579.177 74.8276L571.035 76.839Z" fill="white"/>
<path d="M615.049 40.4255C612.65 41.0183 610.623 42.0198 608.969 43.4301C607.304 44.8011 606.273 46.454 605.874 48.3886L610.495 67.0903L602.589 69.0434L594.952 38.1294L602.208 36.3367L603.841 42.9443C604.417 40.5483 605.401 38.5318 606.791 36.8948C608.181 35.2577 609.805 34.1469 611.664 33.5625C612.096 33.4557 612.431 33.3731 612.667 33.3148C612.903 33.2565 613.104 33.2275 613.271 33.228L615.049 40.4255Z" fill="white"/>
<path d="M639.483 60.5547C637.005 61.1669 634.661 61.3078 632.451 60.9774C630.231 60.6077 628.234 59.8701 626.458 58.7647C624.673 57.6199 623.154 56.2007 621.901 54.5072C620.678 52.7646 619.804 50.8314 619.279 48.7075C618.55 45.7577 618.534 42.9032 619.229 40.1441C619.964 37.3752 621.371 34.9619 623.45 32.9042C625.558 30.7975 628.284 29.3312 631.627 28.5053C635.01 27.6696 638.085 27.7027 640.854 28.6045C643.612 29.4671 645.922 30.9621 647.783 33.0897C649.674 35.1682 650.964 37.6037 651.654 40.3962C651.771 40.8681 651.872 41.3646 651.959 41.8857C652.037 42.3673 652.094 42.7704 652.133 43.0947L628.24 48.9977C628.785 50.5321 629.578 51.7969 630.617 52.7922C631.695 53.7778 632.902 54.4395 634.237 54.7772C635.602 55.066 636.973 55.0403 638.349 54.7002C639.923 54.3116 641.305 53.5735 642.497 52.4862C643.719 51.3497 644.43 50.0891 644.63 48.7042L651.881 48.9159C651.522 50.6737 650.786 52.3372 649.671 53.9063C648.596 55.4656 647.201 56.8325 645.488 58.0068C643.766 59.1418 641.764 59.9911 639.483 60.5547ZM626.824 44.0267L642.989 40.0331C642.443 38.4988 641.655 37.2536 640.626 36.2976C639.626 35.2926 638.459 34.6212 637.124 34.2834C635.779 33.9063 634.378 33.8975 632.923 34.257C631.507 34.6068 630.292 35.2618 629.277 36.2219C628.292 37.133 627.572 38.2708 627.116 39.6354C626.69 40.9509 626.592 42.4146 626.824 44.0267Z" fill="white"/>
<path d="M674.8 51.8295C672.322 52.4417 669.978 52.5826 667.768 52.2522C665.548 51.8825 663.551 51.1449 661.775 50.0394C659.99 48.8947 658.471 47.4755 657.218 45.782C655.995 44.0394 655.121 42.1062 654.596 39.9823C653.867 37.0325 653.851 34.178 654.546 31.4189C655.281 28.65 656.688 26.2367 658.767 24.179C660.875 22.0723 663.601 20.606 666.944 19.78C670.327 18.9444 673.402 18.9775 676.171 19.8793C678.929 20.7419 681.239 22.2369 683.1 24.3645C684.991 26.443 686.281 28.8785 686.971 31.671C687.088 32.1429 687.189 32.6394 687.276 33.1604C687.354 33.6421 687.412 34.0452 687.45 34.3695L663.557 40.2725C664.103 41.8069 664.895 43.0717 665.934 44.067C667.012 45.0526 668.219 45.7143 669.554 46.052C670.919 46.3408 672.29 46.3151 673.666 45.975C675.24 45.5863 676.622 44.8483 677.814 43.761C679.036 42.6245 679.747 41.3639 679.947 39.979L687.198 40.1907C686.839 41.9485 686.103 43.612 684.988 45.1811C683.913 46.7404 682.518 48.1073 680.805 49.2816C679.083 50.4166 677.081 51.2659 674.8 51.8295ZM662.141 35.3015L678.306 31.3079C677.76 29.7736 676.972 28.5284 675.943 27.5724C674.943 26.5674 673.776 25.896 672.441 25.5582C671.096 25.1811 669.695 25.1723 668.24 25.5318C666.824 25.8816 665.609 26.5366 664.594 27.4967C663.609 28.4078 662.889 29.5456 662.433 30.9102C662.007 32.2256 661.909 33.6894 662.141 35.3015Z" fill="white"/>
<path d="M679.901 155.433L690.828 113.693L718.87 121.033L717.008 128.147L697.078 122.93L694.262 133.688L710.841 138.028L709.117 144.612L692.539 140.273L688.014 157.557L679.901 155.433Z" fill="white"/>
<path d="M735.966 144.479C733.575 143.854 731.316 143.765 729.188 144.213C727.071 144.622 725.375 145.581 724.101 147.09L719.222 165.726L711.345 163.664L719.409 132.858L726.64 134.751L724.916 141.336C726.567 139.507 728.395 138.205 730.398 137.431C732.402 136.657 734.359 136.458 736.271 136.833C736.702 136.946 737.035 137.033 737.271 137.094C737.506 137.156 737.697 137.227 737.843 137.307L735.966 144.479Z" fill="white"/>
<path d="M747.81 173.837C745.34 173.191 743.214 172.195 741.431 170.848C739.658 169.463 738.255 167.86 737.224 166.041C736.203 164.182 735.547 162.21 735.255 160.123C735.013 158.008 735.169 155.892 735.723 153.776C736.493 150.836 737.842 148.321 739.772 146.229C741.74 144.148 744.13 142.701 746.939 141.887C749.798 141.044 752.893 141.058 756.225 141.93C759.595 142.813 762.281 144.311 764.282 146.426C766.293 148.502 767.608 150.919 768.226 153.678C768.893 156.407 768.863 159.163 768.134 161.946C768.011 162.416 767.863 162.901 767.691 163.4C767.529 163.86 767.387 164.242 767.266 164.545L743.456 158.313C743.202 159.921 743.294 161.411 743.731 162.782C744.207 164.163 744.951 165.321 745.962 166.255C747.023 167.161 748.24 167.794 749.612 168.153C751.179 168.563 752.747 168.576 754.313 168.19C755.929 167.776 757.156 167.008 757.994 165.887L764.262 169.538C763.107 170.911 761.665 172.02 759.936 172.866C758.247 173.722 756.369 174.256 754.303 174.469C752.247 174.643 750.083 174.432 747.81 173.837ZM744.588 153.269L760.696 157.486C760.949 155.877 760.853 154.407 760.406 153.075C760.008 151.715 759.303 150.567 758.292 149.633C757.29 148.658 756.064 147.982 754.614 147.602C753.203 147.233 751.823 147.227 750.473 147.586C749.172 147.915 747.995 148.571 746.943 149.551C745.94 150.503 745.155 151.743 744.588 153.269Z" fill="white"/>
<path d="M783.003 183.05C780.534 182.403 778.407 181.407 776.624 180.061C774.851 178.675 773.449 177.073 772.417 175.253C771.396 173.395 770.74 171.422 770.448 169.336C770.206 167.22 770.362 165.104 770.917 162.988C771.686 160.049 773.035 157.533 774.965 155.442C776.933 153.361 779.323 151.913 782.132 151.099C784.991 150.256 788.086 150.271 791.418 151.143C794.788 152.025 797.474 153.524 799.475 155.639C801.486 157.715 802.801 160.132 803.419 162.89C804.086 165.619 804.056 168.375 803.327 171.158C803.204 171.628 803.057 172.113 802.884 172.612C802.722 173.072 802.58 173.454 802.459 173.757L778.649 167.525C778.395 169.134 778.487 170.623 778.924 171.994C779.4 173.375 780.144 174.533 781.156 175.468C782.217 176.374 783.433 177.006 784.805 177.365C786.372 177.776 787.94 177.788 789.506 177.402C791.122 176.988 792.349 176.22 793.187 175.1L799.455 178.751C798.3 180.123 796.858 181.232 795.129 182.078C793.44 182.934 791.562 183.468 789.496 183.682C787.44 183.855 785.276 183.645 783.003 183.05ZM779.781 162.482L795.889 166.698C796.143 165.089 796.046 163.619 795.599 162.288C795.201 160.927 794.496 159.78 793.485 158.845C792.483 157.871 791.258 157.194 789.807 156.814C788.396 156.445 787.016 156.44 785.666 156.798C784.365 157.128 783.188 157.783 782.136 158.764C781.133 159.716 780.348 160.955 779.781 162.482Z" fill="white"/>
<path d="M737.975 276.496L767.52 245.051L788.645 264.9L783.61 270.259L768.596 256.153L760.981 264.257L773.471 275.992L768.81 280.952L756.321 269.218L744.087 282.238L737.975 276.496Z" fill="white"/>
<path d="M792.459 293.665C790.657 291.973 788.715 290.815 786.632 290.192C784.577 289.54 782.629 289.572 780.789 290.289L767.598 304.328L761.663 298.752L783.468 275.545L788.915 280.663L784.255 285.623C786.579 284.806 788.806 284.536 790.936 284.813C793.066 285.091 794.881 285.851 796.381 287.094C796.706 287.399 796.957 287.635 797.134 287.802C797.311 287.968 797.445 288.122 797.535 288.262L792.459 293.665Z" fill="white"/>
<path d="M788.833 325.114C786.973 323.366 785.582 321.475 784.658 319.44C783.763 317.376 783.297 315.298 783.26 313.207C783.252 311.086 783.618 309.04 784.359 307.068C785.157 305.094 786.305 303.31 787.803 301.716C789.884 299.501 792.271 297.937 794.966 297.021C797.689 296.134 800.48 296.004 803.337 296.632C806.251 297.257 808.963 298.749 811.473 301.107C814.012 303.493 815.655 306.093 816.402 308.907C817.177 311.692 817.176 314.443 816.401 317.161C815.683 319.878 814.34 322.284 812.37 324.381C812.037 324.735 811.676 325.09 811.285 325.446C810.923 325.773 810.616 326.04 810.365 326.249L792.428 309.396C791.436 310.688 790.805 312.04 790.534 313.453C790.292 314.894 790.392 316.267 790.834 317.571C791.333 318.874 792.099 320.011 793.133 320.982C794.314 322.092 795.685 322.851 797.245 323.261C798.863 323.669 800.307 323.581 801.579 322.997L805.341 329.2C803.67 329.854 801.873 330.139 799.95 330.056C798.057 330 796.152 329.572 794.235 328.772C792.346 327.942 790.546 326.723 788.833 325.114ZM795.832 305.507L807.967 316.908C808.958 315.616 809.576 314.279 809.82 312.895C810.12 311.51 810.05 310.165 809.608 308.861C809.194 307.527 808.44 306.346 807.348 305.32C806.285 304.321 805.075 303.657 803.717 303.326C802.417 302.994 801.071 303.008 799.677 303.366C798.342 303.723 797.06 304.437 795.832 305.507Z" fill="white"/>
<path d="M815.346 350.024C813.486 348.276 812.094 346.385 811.171 344.35C810.275 342.286 809.809 340.208 809.773 338.117C809.764 335.997 810.13 333.95 810.871 331.978C811.67 330.004 812.818 328.22 814.316 326.626C816.396 324.411 818.784 322.847 821.478 321.931C824.202 321.044 826.992 320.914 829.849 321.542C832.764 322.167 835.476 323.659 837.985 326.017C840.524 328.403 842.167 331.003 842.914 333.817C843.689 336.602 843.689 339.353 842.914 342.072C842.196 344.788 840.852 347.194 838.882 349.291C838.549 349.645 838.188 350 837.798 350.356C837.435 350.683 837.128 350.95 836.877 351.159L818.94 334.306C817.949 335.598 817.317 336.951 817.046 338.363C816.804 339.804 816.904 341.177 817.346 342.481C817.845 343.784 818.612 344.921 819.645 345.892C820.826 347.002 822.197 347.761 823.757 348.171C825.375 348.58 826.82 348.491 828.091 347.907L831.853 354.11C830.182 354.764 828.386 355.049 826.463 354.966C824.569 354.91 822.664 354.482 820.748 353.682C818.859 352.852 817.058 351.633 815.346 350.024ZM822.344 330.417L834.479 341.818C835.471 340.526 836.088 339.189 836.332 337.805C836.633 336.42 836.562 335.075 836.12 333.771C835.706 332.437 834.953 331.256 833.86 330.23C832.797 329.231 831.587 328.567 830.23 328.236C828.93 327.904 827.583 327.918 826.19 328.276C824.854 328.633 823.572 329.347 822.344 330.417Z" fill="white"/>
<path d="M595.42 308.393L571.44 272.524L595.538 256.414L599.625 262.527L582.498 273.976L588.679 283.221L602.926 273.697L606.708 279.355L592.462 288.88L602.392 303.732L595.42 308.393Z" fill="white"/>
<path d="M624.423 259.179C622.368 260.553 620.803 262.184 619.727 264.073C618.628 265.928 618.22 267.833 618.504 269.788L629.21 285.803L622.44 290.329L604.743 263.856L610.957 259.702L614.739 265.36C614.466 262.911 614.705 260.68 615.455 258.668C616.206 256.656 617.355 255.059 618.904 253.877C619.275 253.629 619.561 253.438 619.763 253.303C619.965 253.168 620.145 253.072 620.302 253.016L624.423 259.179Z" fill="white"/>
<path d="M654.246 269.796C652.124 271.215 649.968 272.145 647.778 272.586C645.565 272.993 643.435 272.979 641.39 272.543C639.322 272.074 637.41 271.256 635.656 270.09C633.913 268.868 632.433 267.347 631.217 265.528C629.529 263.002 628.542 260.324 628.257 257.493C628.006 254.639 628.509 251.891 629.764 249.249C631.03 246.55 633.094 244.244 635.957 242.33C638.854 240.394 641.757 239.379 644.667 239.285C647.555 239.158 650.235 239.778 652.709 241.146C655.194 242.457 657.236 244.308 658.834 246.7C659.105 247.104 659.369 247.536 659.628 247.996C659.865 248.423 660.056 248.782 660.203 249.074L639.742 262.753C640.778 264.01 641.953 264.93 643.268 265.513C644.617 266.073 645.977 266.284 647.348 266.148C648.73 265.955 650.01 265.465 651.189 264.677C652.536 263.776 653.585 262.612 654.336 261.184C655.098 259.699 655.338 258.272 655.055 256.902L661.946 254.634C662.207 256.409 662.08 258.224 661.565 260.079C661.085 261.911 660.238 263.67 659.027 265.357C657.793 267.011 656.2 268.49 654.246 269.796ZM636.72 258.56L650.562 249.306C649.527 248.049 648.363 247.146 647.07 246.597C645.788 245.992 644.462 245.758 643.091 245.894C641.698 245.997 640.378 246.465 639.132 247.298C637.92 248.109 637 249.138 636.372 250.386C635.756 251.578 635.465 252.893 635.501 254.331C635.547 255.713 635.954 257.123 636.72 258.56Z" fill="white"/>
<path d="M684.489 249.578C682.367 250.996 680.211 251.926 678.021 252.367C675.807 252.774 673.678 252.76 671.633 252.325C669.564 251.856 667.653 251.038 665.899 249.872C664.156 248.649 662.676 247.128 661.46 245.31C659.771 242.784 658.785 240.105 658.5 237.274C658.249 234.42 658.751 231.672 660.006 229.03C661.273 226.332 663.337 224.026 666.2 222.112C669.096 220.175 672 219.16 674.91 219.067C677.797 218.939 680.478 219.559 682.952 220.927C685.437 222.238 687.479 224.09 689.077 226.481C689.347 226.885 689.612 227.317 689.871 227.778C690.107 228.204 690.299 228.564 690.445 228.856L669.985 242.535C671.02 243.792 672.196 244.711 673.511 245.294C674.86 245.854 676.22 246.066 677.591 245.929C678.973 245.736 680.253 245.246 681.432 244.458C682.779 243.557 683.828 242.393 684.579 240.965C685.341 239.481 685.581 238.053 685.298 236.683L692.189 234.415C692.449 236.191 692.323 238.005 691.808 239.86C691.327 241.692 690.481 243.452 689.27 245.139C688.036 246.792 686.442 248.272 684.489 249.578ZM666.963 238.342L680.805 229.087C679.77 227.83 678.605 226.927 677.313 226.378C676.031 225.773 674.705 225.539 673.334 225.676C671.941 225.779 670.621 226.247 669.375 227.08C668.163 227.89 667.242 228.92 666.615 230.168C665.998 231.359 665.708 232.675 665.744 234.113C665.79 235.495 666.197 236.904 666.963 238.342Z" fill="white"/>
<path d="M475.226 377.882L495.932 340.028L521.363 353.938L517.834 360.389L499.761 350.504L494.424 360.26L509.459 368.484L506.193 374.455L491.158 366.232L482.584 381.906L475.226 377.882Z" fill="white"/>
<path d="M532.275 380.825C530.107 379.639 527.936 379.006 525.764 378.926C523.61 378.81 521.733 379.33 520.131 380.486L510.887 397.387L503.742 393.479L519.023 365.542L525.581 369.129L522.315 375.1C524.36 373.725 526.448 372.905 528.579 372.639C530.71 372.373 532.658 372.653 534.422 373.48C534.813 373.694 535.116 373.859 535.329 373.976C535.542 374.092 535.71 374.207 535.833 374.321L532.275 380.825Z" fill="white"/>
<path d="M536.66 412.177C534.421 410.952 532.599 409.471 531.195 407.733C529.81 405.96 528.837 404.065 528.277 402.05C527.736 400 527.577 397.927 527.799 395.832C528.076 393.721 528.74 391.706 529.79 389.786C531.248 387.121 533.166 385.007 535.544 383.445C537.958 381.902 540.627 381.076 543.55 380.966C546.528 380.84 549.527 381.603 552.548 383.256C555.605 384.928 557.848 387.032 559.278 389.569C560.727 392.07 561.417 394.733 561.349 397.559C561.336 400.369 560.639 403.035 559.259 405.559C559.026 405.986 558.765 406.42 558.477 406.863C558.208 407.27 557.978 407.606 557.787 407.871L536.194 396.06C535.558 397.56 535.287 399.027 535.379 400.463C535.507 401.918 535.948 403.222 536.703 404.374C537.513 405.509 538.541 406.418 539.785 407.098C541.206 407.876 542.724 408.267 544.337 408.272C546.006 408.261 547.382 407.813 548.466 406.929L553.664 411.988C552.211 413.041 550.544 413.768 548.661 414.17C546.815 414.591 544.863 414.655 542.807 414.362C540.771 414.033 538.722 413.305 536.66 412.177ZM538.513 391.441L553.121 399.431C553.757 397.932 554.019 396.482 553.907 395.082C553.851 393.665 553.445 392.381 552.69 391.229C551.954 390.042 550.928 389.089 549.613 388.369C548.334 387.669 546.995 387.33 545.599 387.351C544.257 387.356 542.956 387.707 541.698 388.404C540.494 389.084 539.433 390.097 538.513 391.441Z" fill="white"/>
<path d="M568.577 429.635C566.337 428.41 564.515 426.928 563.111 425.19C561.726 423.417 560.753 421.523 560.193 419.508C559.652 417.457 559.493 415.384 559.715 413.289C559.993 411.178 560.656 409.163 561.706 407.244C563.164 404.578 565.082 402.464 567.461 400.902C569.875 399.359 572.543 398.533 575.466 398.423C578.444 398.297 581.444 399.061 584.465 400.713C587.522 402.385 589.765 404.49 591.194 407.026C592.643 409.527 593.333 412.191 593.265 415.016C593.253 417.826 592.556 420.493 591.175 423.016C590.942 423.443 590.681 423.878 590.393 424.32C590.124 424.727 589.894 425.063 589.703 425.328L568.11 413.518C567.475 415.017 567.203 416.485 567.295 417.92C567.423 419.376 567.864 420.679 568.62 421.831C569.43 422.967 570.457 423.875 571.701 424.555C573.123 425.333 574.64 425.724 576.254 425.73C577.922 425.719 579.299 425.271 580.383 424.386L585.581 429.446C584.128 430.498 582.46 431.225 580.578 431.627C578.731 432.049 576.78 432.113 574.724 431.819C572.687 431.49 570.638 430.762 568.577 429.635ZM570.429 408.898L585.038 416.889C585.673 415.389 585.935 413.939 585.824 412.539C585.767 411.123 585.361 409.839 584.606 408.687C583.87 407.499 582.845 406.546 581.53 405.827C580.25 405.127 578.912 404.787 577.515 404.808C576.173 404.813 574.873 405.164 573.614 405.861C572.411 406.542 571.349 407.554 570.429 408.898Z" fill="white"/>
<path d="M431.487 151.547L452.192 113.693L477.624 127.603L474.095 134.054L456.021 124.168L450.684 133.925L465.719 142.149L462.453 148.12L447.418 139.896L438.844 155.571L431.487 151.547Z" fill="white"/>
<path d="M488.535 154.49C486.367 153.304 484.197 152.671 482.024 152.591C479.871 152.475 477.993 152.995 476.391 154.151L467.147 171.052L460.003 167.144L475.284 139.207L481.841 142.794L478.575 148.765C480.62 147.39 482.709 146.57 484.84 146.304C486.971 146.038 488.918 146.318 490.683 147.145C491.074 147.359 491.376 147.524 491.589 147.641C491.802 147.757 491.97 147.872 492.093 147.986L488.535 154.49Z" fill="white"/>
<path d="M492.92 185.842C490.681 184.617 488.859 183.136 487.455 181.398C486.07 179.624 485.097 177.73 484.537 175.715C483.996 173.665 483.837 171.592 484.059 169.497C484.337 167.386 485 165.371 486.05 163.451C487.508 160.786 489.426 158.672 491.805 157.109C494.219 155.567 496.887 154.741 499.81 154.631C502.788 154.505 505.788 155.268 508.809 156.921C511.866 158.593 514.109 160.697 515.538 163.234C516.987 165.735 517.677 168.398 517.609 171.224C517.596 174.034 516.9 176.7 515.519 179.224C515.286 179.65 515.025 180.085 514.737 180.528C514.468 180.935 514.238 181.271 514.047 181.536L492.454 169.725C491.819 171.225 491.547 172.692 491.639 174.128C491.767 175.583 492.208 176.887 492.964 178.038C493.774 179.174 494.801 180.082 496.045 180.763C497.467 181.541 498.984 181.932 500.598 181.937C502.266 181.926 503.642 181.478 504.727 180.594L509.925 185.653C508.472 186.706 506.804 187.433 504.922 187.835C503.075 188.256 501.124 188.32 499.068 188.027C497.031 187.698 494.982 186.97 492.92 185.842ZM494.773 165.106L509.382 173.096C510.017 171.597 510.279 170.147 510.168 168.747C510.111 167.33 509.705 166.046 508.95 164.894C508.214 163.707 507.189 162.753 505.874 162.034C504.594 161.334 503.256 160.995 501.859 161.016C500.517 161.021 499.217 161.372 497.958 162.068C496.755 162.749 495.693 163.762 494.773 165.106Z" fill="white"/>
<path d="M524.837 203.299C522.598 202.075 520.776 200.593 519.371 198.855C517.986 197.082 517.014 195.188 516.453 193.173C515.913 191.122 515.753 189.049 515.976 186.954C516.253 184.843 516.917 182.828 517.966 180.909C519.425 178.243 521.343 176.129 523.721 174.567C526.135 173.024 528.803 172.198 531.726 172.088C534.704 171.962 537.704 172.726 540.725 174.378C543.782 176.05 546.025 178.154 547.455 180.691C548.903 183.192 549.594 185.855 549.526 188.681C549.513 191.491 548.816 194.158 547.436 196.681C547.203 197.108 546.942 197.542 546.654 197.985C546.385 198.392 546.155 198.728 545.964 198.993L524.371 187.182C523.735 188.682 523.464 190.15 523.556 191.585C523.683 193.04 524.125 194.344 524.88 195.496C525.69 196.632 526.717 197.54 527.961 198.22C529.383 198.998 530.901 199.389 532.514 199.394C534.183 199.383 535.559 198.936 536.643 198.051L541.841 203.111C540.388 204.163 538.721 204.89 536.838 205.292C534.992 205.714 533.04 205.778 530.984 205.484C528.948 205.155 526.898 204.427 524.837 203.299ZM526.69 182.563L541.298 190.554C541.934 189.054 542.196 187.604 542.084 186.204C542.027 184.788 541.622 183.504 540.866 182.352C540.13 181.164 539.105 180.211 537.79 179.491C536.51 178.792 535.172 178.452 533.775 178.473C532.434 178.478 531.133 178.829 529.875 179.526C528.671 180.207 527.609 181.219 526.69 182.563Z" fill="white"/>
<path d="M139.548 57.6618L129.2 15.7746L157.341 8.82218L159.105 15.9607L139.105 20.9017L141.772 31.698L158.409 27.5878L160.042 34.1954L143.405 38.3056L147.69 55.6504L139.548 57.6618Z" fill="white"/>
<path d="M183.563 21.2483C181.163 21.8411 179.136 22.8426 177.482 24.2529C175.817 25.624 174.786 27.2768 174.388 29.2114L179.008 47.9131L171.102 49.8662L163.465 18.9523L170.722 17.1595L172.354 23.7671C172.93 21.3711 173.914 19.3546 175.304 17.7176C176.694 16.0805 178.318 14.9697 180.177 14.3853C180.61 14.2785 180.944 14.1959 181.18 14.1376C181.416 14.0793 181.617 14.0503 181.784 14.0508L183.563 21.2483Z" fill="white"/>
<path d="M207.996 41.3775C205.518 41.9897 203.174 42.1306 200.964 41.8002C198.745 41.4305 196.747 40.6929 194.972 39.5875C193.186 38.4427 191.667 37.0235 190.414 35.33C189.191 33.5874 188.317 31.6542 187.792 29.5303C187.063 26.5805 187.047 23.726 187.742 20.9669C188.477 18.198 189.884 15.7847 191.963 13.727C194.072 11.6203 196.797 10.154 200.14 9.32806C203.523 8.49242 206.598 8.52551 209.367 9.42736C212.125 10.2899 214.435 11.7849 216.296 13.9125C218.187 15.991 219.477 18.4265 220.167 21.219C220.284 21.691 220.386 22.1874 220.473 22.7085C220.55 23.1901 220.608 23.5932 220.646 23.9175L196.753 29.8205C197.299 31.3549 198.091 32.6197 199.13 33.615C200.208 34.6006 201.415 35.2623 202.75 35.6001C204.115 35.8888 205.486 35.8631 206.862 35.523C208.436 35.1344 209.818 34.3963 211.01 33.309C212.232 32.1725 212.943 30.9119 213.143 29.527L220.394 29.7387C220.035 31.4966 219.299 33.16 218.184 34.7291C217.109 36.2884 215.715 37.6553 214.002 38.8296C212.279 39.9647 210.277 40.8139 207.996 41.3775ZM195.337 24.8496L211.502 20.8559C210.956 19.3216 210.168 18.0764 209.139 17.1204C208.14 16.1154 206.972 15.444 205.637 15.1062C204.292 14.7291 202.892 14.7203 201.436 15.0798C200.02 15.4296 198.805 16.0846 197.79 17.0447C196.805 17.9558 196.085 19.0936 195.629 20.4582C195.203 21.7737 195.105 23.2375 195.337 24.8496Z" fill="white"/>
<path d="M243.313 32.6523C240.835 33.2645 238.491 33.4054 236.281 33.075C234.062 32.7053 232.064 31.9677 230.289 30.8622C228.503 29.7175 226.984 28.2983 225.731 26.6048C224.508 24.8622 223.634 22.929 223.109 20.8051C222.38 17.8553 222.364 15.0008 223.059 12.2417C223.794 9.4728 225.201 7.05952 227.28 5.00184C229.389 2.89511 232.114 1.42879 235.458 0.602856C238.84 -0.23279 241.915 -0.199691 244.684 0.702152C247.442 1.56466 249.752 3.05971 251.613 5.18727C253.504 7.26579 254.794 9.7013 255.484 12.4938C255.601 12.9657 255.703 13.4622 255.79 13.9833C255.867 14.4649 255.925 14.868 255.963 15.1923L232.07 21.0953C232.616 22.6297 233.408 23.8945 234.447 24.8898C235.525 25.8754 236.732 26.5371 238.067 26.8749C239.432 27.1636 240.803 27.1379 242.179 26.7978C243.753 26.4092 245.135 25.6711 246.327 24.5838C247.549 23.4473 248.26 22.1867 248.46 20.8018L255.711 21.0135C255.352 22.7714 254.616 24.4348 253.501 26.0039C252.426 27.5632 251.032 28.9301 249.319 30.1044C247.596 31.2394 245.594 32.0887 243.313 32.6523ZM230.654 16.1243L246.819 12.1307C246.273 10.5964 245.485 9.35121 244.456 8.39524C243.457 7.39022 242.289 6.71881 240.954 6.38103C239.609 6.00391 238.209 5.99511 236.753 6.35463C235.337 6.70444 234.122 7.3594 233.107 8.31953C232.122 9.23061 231.402 10.3684 230.946 11.733C230.52 13.0485 230.422 14.5122 230.654 16.1243Z" fill="white"/>
<path d="M248.414 136.256L259.341 94.5156L287.383 101.856L285.521 108.97L265.591 103.753L262.775 114.511L279.354 118.851L277.63 125.435L261.052 121.096L256.527 138.38L248.414 136.256Z" fill="white"/>
<path d="M304.479 125.302C302.088 124.676 299.829 124.587 297.701 125.036C295.584 125.445 293.888 126.404 292.614 127.913L287.736 146.549L279.858 144.487L287.922 113.681L295.153 115.574L293.429 122.158C295.081 120.329 296.908 119.028 298.911 118.254C300.915 117.48 302.872 117.281 304.784 117.656C305.215 117.768 305.549 117.856 305.784 117.917C306.019 117.979 306.21 118.05 306.356 118.13L304.479 125.302Z" fill="white"/>
<path d="M316.323 154.66C313.854 154.014 311.727 153.017 309.944 151.671C308.171 150.286 306.769 148.683 305.737 146.864C304.716 145.005 304.06 143.033 303.768 140.946C303.527 138.831 303.683 136.715 304.237 134.599C305.006 131.659 306.355 129.144 308.285 127.052C310.254 124.971 312.643 123.524 315.452 122.709C318.311 121.866 321.406 121.881 324.738 122.753C328.108 123.635 330.794 125.134 332.795 127.249C334.806 129.325 336.121 131.742 336.739 134.501C337.406 137.23 337.376 139.986 336.648 142.769C336.524 143.239 336.377 143.724 336.204 144.223C336.042 144.683 335.9 145.065 335.779 145.368L311.969 139.135C311.715 140.744 311.807 142.234 312.244 143.604C312.72 144.985 313.464 146.143 314.476 147.078C315.537 147.984 316.753 148.617 318.125 148.976C319.693 149.386 321.26 149.399 322.826 149.013C324.443 148.598 325.669 147.831 326.507 146.71L332.776 150.361C331.621 151.734 330.178 152.843 328.45 153.689C326.76 154.544 324.882 155.079 322.816 155.292C320.76 155.466 318.596 155.255 316.323 154.66ZM313.101 134.092L329.209 138.309C329.463 136.7 329.366 135.23 328.919 133.898C328.521 132.538 327.816 131.39 326.805 130.455C325.803 129.481 324.578 128.804 323.127 128.425C321.716 128.055 320.336 128.05 318.986 128.409C317.685 128.738 316.508 129.393 315.456 130.374C314.453 131.326 313.668 132.565 313.101 134.092Z" fill="white"/>
<path d="M351.516 163.873C349.047 163.226 346.92 162.23 345.137 160.884C343.364 159.498 341.962 157.896 340.93 156.076C339.909 154.218 339.253 152.245 338.962 150.159C338.72 148.043 338.876 145.927 339.43 143.811C340.199 140.871 341.549 138.356 343.478 136.265C345.447 134.183 347.836 132.736 350.645 131.922C353.504 131.079 356.599 131.093 359.931 131.965C363.301 132.848 365.987 134.346 367.988 136.462C369.999 138.538 371.314 140.955 371.932 143.713C372.599 146.442 372.569 149.198 371.841 151.981C371.717 152.451 371.57 152.936 371.397 153.435C371.235 153.895 371.093 154.277 370.972 154.58L347.162 148.348C346.909 149.956 347 151.446 347.437 152.817C347.913 154.198 348.657 155.356 349.669 156.291C350.73 157.197 351.946 157.829 353.318 158.188C354.886 158.598 356.453 158.611 358.019 158.225C359.636 157.811 360.863 157.043 361.7 155.922L367.969 159.573C366.814 160.946 365.372 162.055 363.643 162.901C361.953 163.757 360.075 164.291 358.009 164.504C355.953 164.678 353.789 164.468 351.516 163.873ZM348.294 143.304L364.402 147.521C364.656 145.912 364.559 144.442 364.112 143.111C363.714 141.75 363.009 140.603 361.998 139.668C360.996 138.694 359.771 138.017 358.321 137.637C356.91 137.268 355.529 137.262 354.179 137.621C352.878 137.95 351.701 138.606 350.649 139.587C349.646 140.538 348.861 141.778 348.294 143.304Z" fill="white"/>
<path d="M306.489 257.319L336.033 225.874L357.158 245.723L352.123 251.082L337.11 236.975L329.495 245.08L341.984 256.815L337.323 261.775L324.834 250.04L312.6 263.061L306.489 257.319Z" fill="white"/>
<path d="M360.972 274.488C359.171 272.796 357.229 271.638 355.146 271.015C353.09 270.363 351.142 270.395 349.302 271.111L336.111 285.151L330.176 279.575L351.981 256.368L357.428 261.486L352.768 266.446C355.092 265.629 357.32 265.359 359.449 265.636C361.579 265.914 363.394 266.674 364.894 267.917C365.219 268.222 365.47 268.458 365.647 268.624C365.824 268.791 365.958 268.944 366.048 269.085L360.972 274.488Z" fill="white"/>
<path d="M357.347 305.937C355.486 304.189 354.095 302.298 353.172 300.263C352.276 298.199 351.81 296.121 351.773 294.03C351.765 291.909 352.131 289.863 352.872 287.891C353.67 285.917 354.818 284.133 356.316 282.539C358.397 280.324 360.784 278.759 363.479 277.844C366.203 276.957 368.993 276.827 371.85 277.454C374.764 278.08 377.476 279.572 379.986 281.93C382.525 284.316 384.168 286.916 384.915 289.73C385.69 292.514 385.689 295.266 384.914 297.984C384.196 300.701 382.853 303.107 380.883 305.203C380.55 305.558 380.189 305.913 379.799 306.269C379.436 306.596 379.129 306.863 378.878 307.072L360.941 290.219C359.949 291.511 359.318 292.863 359.047 294.276C358.805 295.717 358.905 297.089 359.347 298.394C359.846 299.697 360.613 300.834 361.646 301.805C362.827 302.914 364.198 303.674 365.758 304.084C367.376 304.492 368.821 304.404 370.092 303.82L373.854 310.023C372.183 310.677 370.386 310.962 368.463 310.878C366.57 310.823 364.665 310.395 362.748 309.595C360.86 308.765 359.059 307.546 357.347 305.937ZM364.345 286.33L376.48 297.731C377.472 296.439 378.089 295.102 378.333 293.718C378.633 292.333 378.563 290.988 378.121 289.684C377.707 288.349 376.953 287.169 375.861 286.143C374.798 285.144 373.588 284.48 372.231 284.149C370.931 283.817 369.584 283.83 368.191 284.189C366.855 284.546 365.573 285.259 364.345 286.33Z" fill="white"/>
<path d="M383.859 330.847C381.999 329.099 380.607 327.208 379.684 325.173C378.788 323.109 378.322 321.031 378.286 318.94C378.277 316.819 378.643 314.773 379.384 312.801C380.183 310.827 381.331 309.043 382.829 307.449C384.909 305.234 387.297 303.669 389.991 302.754C392.715 301.867 395.505 301.737 398.362 302.364C401.277 302.99 403.989 304.482 406.498 306.84C409.038 309.226 410.681 311.826 411.427 314.64C412.202 317.425 412.202 320.176 411.427 322.894C410.709 325.611 409.365 328.017 407.396 330.114C407.063 330.468 406.701 330.823 406.311 331.179C405.949 331.506 405.642 331.773 405.39 331.982L387.453 315.129C386.462 316.421 385.83 317.773 385.559 319.186C385.317 320.627 385.418 321.999 385.859 323.304C386.359 324.607 387.125 325.744 388.158 326.715C389.339 327.824 390.71 328.584 392.271 328.994C393.888 329.402 395.333 329.314 396.605 328.73L400.366 334.933C398.695 335.587 396.899 335.872 394.976 335.789C393.082 335.733 391.177 335.305 389.261 334.505C387.372 333.675 385.571 332.456 383.859 330.847ZM390.858 311.24L402.992 322.641C403.984 321.349 404.602 320.012 404.845 318.628C405.146 317.243 405.075 315.898 404.633 314.594C404.219 313.259 403.466 312.079 402.373 311.053C401.311 310.054 400.1 309.39 398.743 309.059C397.443 308.727 396.096 308.741 394.703 309.099C393.367 309.456 392.085 310.17 390.858 311.24Z" fill="white"/>
<path d="M163.933 289.216L139.953 253.347L164.051 237.236L168.138 243.349L151.012 254.799L157.192 264.044L171.439 254.52L175.222 260.178L160.975 269.702L170.905 284.555L163.933 289.216Z" fill="white"/>
<path d="M192.936 240.002C190.881 241.375 189.316 243.007 188.24 244.896C187.141 246.751 186.733 248.656 187.017 250.611L197.723 266.626L190.954 271.152L173.256 244.679L179.47 240.525L183.252 246.183C182.98 243.734 183.218 241.503 183.969 239.491C184.719 237.479 185.868 235.882 187.417 234.7C187.788 234.452 188.074 234.261 188.276 234.126C188.478 233.991 188.658 233.895 188.815 233.838L192.936 240.002Z" fill="white"/>
<path d="M222.759 250.619C220.637 252.038 218.481 252.967 216.291 253.409C214.078 253.816 211.948 253.802 209.903 253.366C207.835 252.897 205.924 252.079 204.169 250.913C202.426 249.69 200.946 248.17 199.73 246.351C198.042 243.825 197.055 241.147 196.77 238.315C196.52 235.462 197.022 232.714 198.277 230.072C199.543 227.373 201.607 225.067 204.47 223.153C207.367 221.217 210.27 220.202 213.18 220.108C216.068 219.981 218.748 220.601 221.222 221.968C223.707 223.28 225.749 225.131 227.347 227.522C227.618 227.927 227.882 228.359 228.141 228.819C228.378 229.246 228.569 229.605 228.716 229.897L208.255 243.576C209.291 244.833 210.466 245.753 211.781 246.335C213.131 246.896 214.49 247.107 215.861 246.971C217.243 246.778 218.523 246.287 219.702 245.499C221.049 244.599 222.098 243.434 222.849 242.006C223.611 240.522 223.851 239.095 223.568 237.724L230.459 235.457C230.72 237.232 230.593 239.047 230.078 240.901C229.598 242.734 228.752 244.493 227.54 246.18C226.306 247.834 224.713 249.313 222.759 250.619ZM205.233 239.383L219.075 230.129C218.04 228.872 216.876 227.969 215.583 227.42C214.301 226.815 212.975 226.58 211.604 226.717C210.211 226.82 208.891 227.288 207.645 228.121C206.433 228.932 205.513 229.961 204.885 231.209C204.269 232.401 203.978 233.716 204.014 235.154C204.061 236.536 204.467 237.946 205.233 239.383Z" fill="white"/>
<path d="M253.002 230.401C250.88 231.819 248.724 232.749 246.534 233.19C244.321 233.597 242.191 233.583 240.146 233.148C238.078 232.678 236.166 231.861 234.412 230.694C232.669 229.472 231.189 227.951 229.973 226.133C228.285 223.607 227.298 220.928 227.013 218.097C226.762 215.243 227.264 212.495 228.52 209.853C229.786 207.155 231.85 204.848 234.713 202.935C237.609 200.998 240.513 199.983 243.423 199.889C246.31 199.762 248.991 200.382 251.465 201.75C253.95 203.061 255.992 204.913 257.59 207.304C257.861 207.708 258.125 208.14 258.384 208.601C258.621 209.027 258.812 209.387 258.959 209.679L238.498 223.357C239.533 224.614 240.709 225.534 242.024 226.117C243.373 226.677 244.733 226.889 246.104 226.752C247.486 226.559 248.766 226.069 249.945 225.281C251.292 224.38 252.341 223.216 253.092 221.788C253.854 220.304 254.094 218.876 253.811 217.506L260.702 215.238C260.963 217.013 260.836 218.828 260.321 220.683C259.84 222.515 258.994 224.275 257.783 225.962C256.549 227.615 254.956 229.095 253.002 230.401ZM235.476 219.164L249.318 209.91C248.283 208.653 247.119 207.75 245.826 207.201C244.544 206.596 243.218 206.362 241.847 206.498C240.454 206.601 239.134 207.069 237.888 207.902C236.676 208.713 235.756 209.742 235.128 210.99C234.512 212.182 234.221 213.497 234.257 214.936C234.303 216.318 234.71 217.727 235.476 219.164Z" fill="white"/>
<path d="M43.7396 358.705L64.4447 320.851L89.8763 334.761L86.3476 341.212L68.2737 331.326L62.937 341.083L77.972 349.307L74.7058 355.278L59.6708 347.054L51.0972 362.729L43.7396 358.705Z" fill="white"/>
<path d="M100.788 361.648C98.62 360.462 96.4495 359.829 94.2769 359.749C92.1236 359.633 90.2461 360.153 88.6442 361.309L79.3998 378.21L72.2555 374.302L87.5365 346.365L94.0943 349.952L90.8281 355.923C92.8732 354.548 94.9613 353.728 97.0923 353.462C99.2234 353.196 101.171 353.476 102.936 354.303C103.327 354.517 103.629 354.682 103.842 354.799C104.055 354.915 104.223 355.03 104.346 355.143L100.788 361.648Z" fill="white"/>
<path d="M105.173 393C102.934 391.775 101.112 390.294 99.7077 388.556C98.3227 386.782 97.3501 384.888 96.7898 382.873C96.249 380.823 96.0898 378.75 96.3121 376.655C96.5894 374.544 97.2529 372.529 98.3028 370.609C99.7609 367.944 101.679 365.83 104.057 364.267C106.471 362.725 109.14 361.898 112.063 361.789C115.041 361.663 118.04 362.426 121.062 364.079C124.118 365.751 126.361 367.855 127.791 370.392C129.24 372.893 129.93 375.556 129.862 378.382C129.849 381.192 129.152 383.858 127.772 386.382C127.539 386.808 127.278 387.243 126.99 387.686C126.721 388.093 126.491 388.429 126.3 388.694L104.707 376.883C104.072 378.382 103.8 379.85 103.892 381.286C104.02 382.741 104.461 384.044 105.216 385.196C106.027 386.332 107.054 387.24 108.298 387.921C109.719 388.698 111.237 389.09 112.85 389.095C114.519 389.084 115.895 388.636 116.979 387.752L122.177 392.811C120.724 393.864 119.057 394.591 117.175 394.993C115.328 395.414 113.377 395.478 111.32 395.185C109.284 394.856 107.235 394.128 105.173 393ZM107.026 372.264L121.634 380.254C122.27 378.755 122.532 377.305 122.42 375.905C122.364 374.488 121.958 373.204 121.203 372.052C120.467 370.865 119.441 369.911 118.126 369.192C116.847 368.492 115.508 368.153 114.112 368.174C112.77 368.179 111.47 368.529 110.211 369.226C109.007 369.907 107.946 370.92 107.026 372.264Z" fill="white"/>
<path d="M137.09 410.457C134.85 409.233 133.029 407.751 131.624 406.013C130.239 404.24 129.267 402.346 128.706 400.331C128.165 398.28 128.006 396.207 128.229 394.112C128.506 392.001 129.169 389.986 130.219 388.067C131.677 385.401 133.596 383.287 135.974 381.725C138.388 380.182 141.056 379.356 143.979 379.246C146.957 379.12 149.957 379.884 152.978 381.536C156.035 383.208 158.278 385.312 159.707 387.849C161.156 390.35 161.847 393.013 161.779 395.839C161.766 398.649 161.069 401.316 159.689 403.839C159.455 404.266 159.195 404.7 158.906 405.143C158.637 405.55 158.407 405.886 158.216 406.151L136.624 394.34C135.988 395.84 135.716 397.307 135.808 398.743C135.936 400.198 136.378 401.502 137.133 402.654C137.943 403.79 138.97 404.698 140.214 405.378C141.636 406.156 143.154 406.547 144.767 406.552C146.435 406.541 147.812 406.094 148.896 405.209L154.094 410.269C152.641 411.321 150.973 412.048 149.091 412.45C147.244 412.872 145.293 412.936 143.237 412.642C141.2 412.313 139.151 411.585 137.09 410.457ZM138.942 389.721L153.551 397.711C154.186 396.212 154.448 394.762 154.337 393.362C154.28 391.946 153.874 390.662 153.119 389.51C152.383 388.322 151.358 387.369 150.043 386.649C148.763 385.95 147.425 385.61 146.028 385.631C144.686 385.636 143.386 385.987 142.128 386.684C140.924 387.365 139.862 388.377 138.942 389.721Z" fill="white"/>
<path d="M0 132.37L20.7051 94.5156L46.1366 108.426L42.608 114.877L24.534 104.991L19.1974 114.748L34.2324 122.972L30.9662 128.943L15.9312 120.719L7.35755 136.394L0 132.37Z" fill="white"/>
<path d="M57.0485 135.313C54.8804 134.127 52.7099 133.494 50.5372 133.414C48.384 133.298 46.5064 133.818 44.9046 134.974L35.6602 151.875L28.5159 147.967L43.7969 120.03L50.3547 123.617L47.0885 129.588C49.1336 128.213 51.2217 127.393 53.3527 127.127C55.4838 126.861 57.4315 127.141 59.1959 127.968C59.5869 128.182 59.889 128.347 60.1023 128.463C60.3156 128.58 60.4836 128.695 60.6063 128.808L57.0485 135.313Z" fill="white"/>
<path d="M61.4337 166.665C59.1944 165.44 57.3725 163.959 55.9681 162.221C54.5831 160.447 53.6104 158.553 53.0502 156.538C52.5094 154.487 52.3501 152.415 52.5725 150.32C52.8498 148.209 53.5133 146.194 54.5632 144.274C56.0213 141.608 57.9395 139.494 60.3178 137.932C62.7316 136.39 65.4001 135.563 68.3231 135.454C71.3012 135.328 74.3008 136.091 77.322 137.744C80.3788 139.416 82.6218 141.52 84.0512 144.056C85.5001 146.557 86.1905 149.221 86.1225 152.047C86.1096 154.856 85.4129 157.523 84.0325 160.047C83.7992 160.473 83.5385 160.908 83.2502 161.35C82.9813 161.758 82.7514 162.094 82.5603 162.358L60.9675 150.548C60.332 152.047 60.0603 153.515 60.1524 154.951C60.28 156.406 60.7215 157.709 61.4767 158.861C62.287 159.997 63.3141 160.905 64.5581 161.586C65.9799 162.363 67.4975 162.755 69.1109 162.76C70.7793 162.749 72.1556 162.301 73.2398 161.416L78.4379 166.476C76.9849 167.528 75.3173 168.256 73.435 168.658C71.5883 169.079 69.6369 169.143 67.5809 168.85C65.5443 168.521 63.4952 167.792 61.4337 166.665ZM63.2863 145.929L77.8948 153.919C78.5303 152.419 78.7922 150.97 78.6807 149.569C78.6242 148.153 78.2183 146.869 77.463 145.717C76.7272 144.53 75.7018 143.576 74.3866 142.857C73.1071 142.157 71.7689 141.818 70.3721 141.839C69.0302 141.843 67.73 142.194 66.4714 142.891C65.2679 143.572 64.2061 144.585 63.2863 145.929Z" fill="white"/>
<path d="M93.3501 184.122C91.1109 182.897 89.289 181.416 87.8845 179.678C86.4995 177.905 85.5269 176.01 84.9667 173.995C84.4259 171.945 84.2666 169.872 84.4889 167.777C84.7662 165.666 85.4298 163.651 86.4796 161.732C87.9377 159.066 89.8559 156.952 92.2343 155.39C94.6481 153.847 97.3165 153.021 100.24 152.911C103.218 152.785 106.217 153.548 109.238 155.201C112.295 156.873 114.538 158.977 115.968 161.514C117.417 164.015 118.107 166.678 118.039 169.504C118.026 172.314 117.329 174.981 115.949 177.504C115.716 177.931 115.455 178.365 115.167 178.808C114.898 179.215 114.668 179.551 114.477 179.816L92.8839 168.005C92.2485 169.505 91.9768 170.972 92.0689 172.408C92.1965 173.863 92.6379 175.167 93.3932 176.319C94.2034 177.454 95.2306 178.363 96.4746 179.043C97.8963 179.821 99.4139 180.212 101.027 180.217C102.696 180.206 104.072 179.758 105.156 178.874L110.354 183.934C108.901 184.986 107.234 185.713 105.351 186.115C103.505 186.536 101.553 186.6 99.4973 186.307C97.4607 185.978 95.4117 185.25 93.3501 184.122ZM95.2028 163.386L109.811 171.376C110.447 169.877 110.709 168.427 110.597 167.027C110.541 165.611 110.135 164.326 109.379 163.174C108.644 161.987 107.618 161.034 106.303 160.314C105.024 159.614 103.685 159.275 102.289 159.296C100.947 159.301 99.6465 159.652 98.3879 160.349C97.1843 161.03 96.1226 162.042 95.2028 163.386Z" fill="white"/>
</g>
</svg>
